<svg xmlns="http://www.w3.org/2000/svg" viewBox="0 0 64 64" width="64" height="64">
  <defs>
    <linearGradient id="cityGrad" x1="0%" y1="0%" x2="100%" y2="100%">
      <stop offset="0%" style="stop-color:#00d4ff;stop-opacity:1" />
      <stop offset="50%" style="stop-color:#8b5cf6;stop-opacity:1" />
      <stop offset="100%" style="stop-color:#00ff88;stop-opacity:1" />
    </linearGradient>
  </defs>
  
  <!-- Background circle -->
  <circle cx="32" cy="32" r="30" fill="#0a0a0f" stroke="url(#cityGrad)" stroke-width="2"/>
  
  <!-- City buildings -->
  <rect x="12" y="25" width="8" height="20" fill="#00d4ff" opacity="0.8"/>
  <rect x="22" y="20" width="6" height="25" fill="#8b5cf6" opacity="0.8"/>
  <rect x="30" y="15" width="8" height="30" fill="#00ff88" opacity="0.8"/>
  <rect x="40" y="22" width="6" height="23" fill="#00d4ff" opacity="0.8"/>
  <rect x="48" y="27" width="7" height="18" fill="#8b5cf6" opacity="0.8"/>
  
  <!-- Windows -->
  <rect x="14" y="27" width="1.5" height="2" fill="#ffffff" opacity="0.6"/>
  <rect x="16.5" y="27" width="1.5" height="2" fill="#ffffff" opacity="0.6"/>
  <rect x="14" y="31" width="1.5" height="2" fill="#ffffff" opacity="0.6"/>
  <rect x="24" y="22" width="1" height="1.5" fill="#ffffff" opacity="0.6"/>
  <rect x="32" y="17" width="1.5" height="2" fill="#ffffff" opacity="0.6"/>
  <rect x="34.5" y="17" width="1.5" height="2" fill="#ffffff" opacity="0.6"/>
  <rect x="32" y="21" width="1.5" height="2" fill="#ffffff" opacity="0.6"/>
  <rect x="34.5" y="21" width="1.5" height="2" fill="#ffffff" opacity="0.6"/>
  <rect x="42" y="24" width="1" height="1.5" fill="#ffffff" opacity="0.6"/>
  <rect x="50" y="29" width="1" height="1.5" fill="#ffffff" opacity="0.6"/>
  <rect x="52" y="29" width="1" height="1.5" fill="#ffffff" opacity="0.6"/>
  
  <!-- Center "M" for Mailopolis -->
  <text x="32" y="58" font-family="monospace" font-size="8" font-weight="bold" text-anchor="middle" fill="url(#cityGrad)">M</text>
</svg>